<?xml version="1.0" encoding="UTF-8" standalone="no" ?>
<!DOCTYPE svg PUBLIC "-//W3C//DTD SVG 1.1//EN" "http://www.w3.org/Graphics/SVG/1.1/DTD/svg11.dtd">
<svg xmlns="http://www.w3.org/2000/svg" xmlns:xlink="http://www.w3.org/1999/xlink" version="1.1" width="640" height="480" viewBox="0 0 640 480" xml:space="preserve">
<desc>Created with Fabric.js 3.6.6</desc>
<defs>
</defs>
<g transform="matrix(0.17 0 0 0.17 320.23 240.27)" id="surface1"  >
<linearGradient id="SVGID_842" gradientUnits="userSpaceOnUse" gradientTransform="matrix(1 0 0 1 336.27 373.01)"  x1="58.062175474735945" y1="993.2217259369918" x2="2845.0465982620613" y2="1844.554633882985">
<stop offset="0%" style="stop-color:rgba(182, 41, 204, 1);"/>
<stop offset="100%" style="stop-color:rgba(21, 207, 241, 1);"/>
</linearGradient>
<path style="stroke: none; stroke-width: 1; stroke-dasharray: none; stroke-linecap: butt; stroke-dashoffset: 0; stroke-linejoin: miter; stroke-miterlimit: 4; fill: url(#SVGID_842); fill-rule: nonzero; opacity: 1;"  transform=" translate(-1787.82, -1791.9)" d="M 3209.089844 1281.859375 C 3105.011719 822.449219 2802.382812 518.460938 2473.199219 373.011719 C 2882.5625 733.554688 3259.644531 1431.324219 2790.507812 2067.007812 C 2595.882812 2330.847656 2206.691406 2435.125 2043.664062 2361.554688 C 2043.664062 2361.554688 2295.746094 2308.035156 2452.519531 2170.984375 C 2757.394531 1882.460938 2859.289062 1417.660156 2615.246094 995.085938 C 2580.371094 934.695312 2539.707031 879.707031 2494.386719 830.445312 C 2493.746094 829.679688 2493.203125 828.9375 2492.558594 828.214844 C 2321.054688 623.683594 2085.511719 501.617188 1832.421875 464.140625 C 1503.839844 402.421875 1080.175781 482.675781 762.863281 776.019531 C 416.902344 1095.890625 304.886719 1509.90625 343.539062 1867.699219 C 451.140625 1332.9375 867.03125 657.613281 1652.292969 745.839844 C 1978.203125 782.511719 2263.007812 1067.296875 2280.90625 1245.28125 C 2280.90625 1245.28125 2090.9375 947.238281 1619.792969 947.238281 C 1611.152344 947.378906 1592.890625 948.101562 1592.390625 948.101562 C 1590.402344 948.203125 1588.390625 948.324219 1586.382812 948.464844 C 1280.023438 960.453125 982.199219 1120.640625 800.503906 1435.273438 C 765.628906 1495.625 738.328125 1558.328125 718.28125 1622.230469 C 717.917969 1623.097656 717.597656 1624.039062 717.273438 1624.902344 C 625.871094 1875.6875 637.898438 2140.640625 731.921875 2378.484375 C 842.773438 2693.859375 1124.179688 3020.59375 1536.933594 3148.566406 C 1987.015625 3288.128906 2401.652344 3178.070312 2692.222656 2965.761719 C 2175.160156 3139.847656 1382.234375 3117.496094 1066 2393.574219 C 934.773438 2093.0625 1039.039062 1704.054688 1184.328125 1599.582031 C 1184.328125 1599.582031 1021.101562 1913.050781 1256.769531 2320.976562 C 1418.125 2590.320312 1710.988281 2776.53125 2082.917969 2776.53125 C 2100.835938 2776.53125 2244.476562 2765.34375 2296.242188 2753.757812 C 2297.207031 2753.65625 2298.234375 2753.476562 2299.117188 2753.355469 C 2562.023438 2707.0625 2785.558594 2564.1875 2944.546875 2363.871094 C 3162.355469 2110.277344 3304.664062 1703.199219 3209.121094 1281.859375 Z M 3209.089844 1281.859375" stroke-linecap="round" />
</g>
</svg>