<svg xmlns="http://www.w3.org/2000/svg" xmlns:xlink="http://www.w3.org/1999/xlink" width="6912" zoomAndPan="magnify" viewBox="0 0 5184 2592.000001" height="3456" preserveAspectRatio="xMidYMid meet" version="1.0"><defs><g/></defs><path fill="#000000" d="M 1053.277344 889.746094 L 1040 883.0625 L 1058.5 901.425781 C 1068.675781 911.527344 1082.195312 926.027344 1088.542969 933.644531 C 1094.890625 941.265625 1103.25 951.65625 1107.113281 956.738281 C 1110.980469 961.816406 1118.3125 972.207031 1123.40625 979.828125 C 1128.5 987.449219 1136.390625 1000.175781 1140.9375 1008.113281 C 1145.484375 1016.050781 1151.976562 1028.261719 1155.371094 1035.246094 C 1158.761719 1042.230469 1163.414062 1052.492188 1165.710938 1058.050781 C 1168.007812 1063.605469 1171.902344 1073.996094 1174.363281 1081.140625 C 1176.824219 1088.285156 1180.171875 1099.066406 1181.804688 1105.097656 C 1183.4375 1111.128906 1185.820312 1121.261719 1187.101562 1127.613281 C 1188.382812 1133.960938 1190.273438 1145.910156 1191.300781 1154.167969 C 1192.492188 1163.714844 1193.140625 1177.363281 1193.085938 1191.6875 C 1193.039062 1204.144531 1192.253906 1219.875 1191.332031 1226.902344 C 1190.414062 1233.886719 1188.546875 1245.058594 1187.1875 1251.726562 C 1185.824219 1258.394531 1182.894531 1269.824219 1180.671875 1277.125 C 1178.453125 1284.429688 1174.402344 1295.859375 1171.679688 1302.527344 C 1168.953125 1309.195312 1164.246094 1319.585938 1161.222656 1325.617188 C 1158.199219 1331.648438 1152.75 1341.523438 1149.113281 1347.554688 C 1145.476562 1353.585938 1139.246094 1363.199219 1135.269531 1368.914062 C 1131.296875 1374.628906 1125.640625 1382.160156 1122.707031 1385.65625 C 1119.773438 1389.148438 1113.472656 1395.851562 1108.707031 1400.550781 C 1103.9375 1405.253906 1095.363281 1412.710938 1089.648438 1417.125 C 1083.933594 1421.539062 1074.839844 1427.882812 1069.441406 1431.21875 C 1064.042969 1434.554688 1054.433594 1439.882812 1048.082031 1443.0625 C 1041.734375 1446.238281 1031.601562 1450.78125 1025.570312 1453.152344 C 1019.535156 1455.523438 1008.367188 1459.167969 1000.746094 1461.246094 C 993.125 1463.328125 981.046875 1465.875 973.902344 1466.90625 C 966.757812 1467.9375 956.109375 1468.777344 950.234375 1468.773438 C 944.359375 1468.769531 936.179688 1468.226562 932.050781 1467.566406 C 927.921875 1466.90625 921.808594 1465.484375 918.464844 1464.398438 C 915.117188 1463.316406 912.390625 1462.042969 912.402344 1461.566406 C 912.414062 1461.089844 913.203125 1460.699219 914.15625 1460.699219 C 915.105469 1460.699219 922.25 1458.839844 930.03125 1456.566406 C 937.808594 1454.292969 951.445312 1449.554688 960.335938 1446.039062 C 969.226562 1442.519531 981.175781 1437.292969 986.890625 1434.425781 C 992.605469 1431.554688 1001.4375 1426.625 1006.519531 1423.46875 C 1011.597656 1420.3125 1019.910156 1414.496094 1024.992188 1410.539062 C 1030.070312 1406.585938 1038.84375 1398.199219 1044.484375 1391.902344 C 1050.125 1385.609375 1057.90625 1376.300781 1061.773438 1371.222656 C 1065.640625 1366.140625 1072.097656 1356.789062 1076.121094 1350.441406 C 1080.144531 1344.089844 1086.46875 1332.660156 1090.175781 1325.039062 C 1093.882812 1317.421875 1098.851562 1305.988281 1101.21875 1299.640625 C 1103.585938 1293.289062 1107.234375 1281.339844 1109.328125 1273.085938 C 1111.421875 1264.832031 1114.0625 1252.101562 1115.199219 1244.796875 C 1116.695312 1235.160156 1117.265625 1224.714844 1117.28125 1206.699219 C 1117.300781 1188.449219 1116.757812 1178.359375 1115.238281 1168.597656 C 1114.097656 1161.296875 1111.9375 1150.125 1110.4375 1143.773438 C 1108.9375 1137.425781 1105.910156 1126.773438 1103.710938 1120.105469 C 1101.511719 1113.4375 1097.148438 1102.007812 1094.011719 1094.707031 C 1090.875 1087.402344 1085.296875 1075.972656 1081.617188 1069.304688 C 1077.933594 1062.640625 1071.222656 1051.753906 1066.699219 1045.121094 C 1062.175781 1038.484375 1053.335938 1027.054688 1047.050781 1019.71875 C 1040.769531 1012.382812 1031.9375 1002.574219 1027.425781 997.917969 C 1022.910156 993.265625 1014.542969 985.414062 1008.828125 980.472656 C 1003.113281 975.53125 993.242188 967.738281 986.890625 963.152344 C 980.542969 958.570312 969.632812 951.5 962.644531 947.441406 C 955.660156 943.382812 943.710938 937.238281 936.089844 933.785156 C 928.472656 930.328125 916.003906 925.359375 908.382812 922.742188 C 900.761719 920.121094 888.292969 916.453125 880.671875 914.589844 C 873.050781 912.726562 858.765625 909.902344 848.921875 908.316406 C 839.078125 906.730469 825.570312 904.890625 818.902344 904.234375 C 812.238281 903.574219 798.078125 903.039062 787.441406 903.042969 C 776.804688 903.046875 760.441406 903.855469 751.074219 904.84375 C 741.707031 905.828125 727.289062 907.890625 719.035156 909.425781 C 710.78125 910.960938 697.53125 914 689.59375 916.179688 C 681.65625 918.363281 668.40625 922.5625 660.152344 925.511719 C 651.898438 928.460938 635.273438 935.746094 623.207031 941.699219 C 611.140625 947.652344 594.257812 957.144531 585.683594 962.792969 C 577.113281 968.441406 564.773438 977.3125 558.261719 982.507812 C 551.753906 987.703125 540.375 997.796875 532.976562 1004.941406 C 525.578125 1012.082031 515.117188 1022.863281 509.726562 1028.898438 C 504.335938 1034.929688 495.195312 1046.183594 489.40625 1053.910156 C 483.621094 1061.632812 475.542969 1073.324219 471.453125 1079.886719 C 467.367188 1086.449219 460.507812 1098.574219 456.210938 1106.828125 C 451.914062 1115.085938 446.109375 1127.292969 443.304688 1133.960938 C 440.5 1140.628906 435.59375 1154.136719 432.402344 1163.980469 C 429.210938 1173.824219 425.261719 1187.851562 423.628906 1195.152344 C 421.996094 1202.457031 419.886719 1213.367188 418.933594 1219.398438 C 417.984375 1225.429688 416.65625 1235.820312 415.980469 1242.488281 C 415.304688 1249.15625 414.796875 1266.042969 414.851562 1280.011719 C 414.90625 1293.984375 415.375 1307.75 415.890625 1310.609375 C 416.40625 1313.464844 416.894531 1314.636719 416.972656 1313.207031 C 417.054688 1311.777344 419.164062 1302.683594 421.664062 1293 C 424.164062 1283.316406 428.621094 1268.121094 431.566406 1259.230469 C 434.511719 1250.339844 439.539062 1236.574219 442.734375 1228.636719 C 445.929688 1220.699219 452.597656 1205.890625 457.558594 1195.730469 C 462.515625 1185.570312 469.273438 1172.582031 472.578125 1166.867188 C 475.878906 1161.152344 482.859375 1149.980469 488.085938 1142.042969 C 493.316406 1134.105469 502.863281 1120.988281 509.308594 1112.890625 C 515.753906 1104.792969 526.613281 1092.390625 533.441406 1085.324219 C 540.265625 1078.257812 550.527344 1068.46875 556.242188 1063.570312 C 561.957031 1058.671875 571.570312 1051.011719 577.601562 1046.550781 C 583.632812 1042.089844 593.507812 1035.429688 599.539062 1031.753906 C 605.570312 1028.074219 617.78125 1021.566406 626.671875 1017.296875 C 635.5625 1013.023438 648.289062 1007.609375 654.957031 1005.269531 C 661.625 1002.929688 672.796875 999.535156 679.78125 997.726562 C 686.765625 995.917969 697.15625 993.632812 702.871094 992.648438 C 708.585938 991.660156 718.199219 990.292969 724.230469 989.601562 C 730.261719 988.914062 745.847656 988.367188 758.867188 988.386719 C 772.292969 988.410156 788.78125 989.167969 796.96875 990.140625 C 804.90625 991.082031 817.375 993.394531 824.675781 995.28125 C 831.980469 997.167969 842.628906 1000.5 848.34375 1002.683594 C 854.058594 1004.871094 864.453125 1009.519531 871.4375 1013.011719 C 878.421875 1016.507812 890.371094 1023.535156 897.992188 1028.625 C 905.609375 1033.714844 917.5625 1042.789062 924.546875 1048.789062 C 931.53125 1054.792969 941.066406 1064.070312 945.734375 1069.410156 C 950.40625 1074.75 956.640625 1082.496094 959.589844 1086.617188 C 962.542969 1090.742188 967.167969 1098.015625 969.871094 1102.78125 C 972.574219 1107.546875 976.042969 1115.34375 977.582031 1120.105469 C 979.121094 1124.871094 980.714844 1130.585938 981.121094 1132.808594 L 981.859375 1136.847656 L 978.660156 1132.808594 C 976.902344 1130.585938 970.761719 1123.902344 965.015625 1117.960938 C 959.265625 1112.019531 950.40625 1103.890625 945.328125 1099.902344 C 940.246094 1095.914062 931.933594 1090.066406 926.855469 1086.914062 C 921.773438 1083.757812 913.203125 1078.953125 907.804688 1076.238281 C 902.40625 1073.523438 893.316406 1069.492188 887.601562 1067.28125 C 881.886719 1065.066406 873.3125 1062.082031 868.550781 1060.648438 C 863.789062 1059.210938 854.695312 1056.964844 848.34375 1055.652344 C 841.996094 1054.34375 832.125 1052.59375 826.410156 1051.765625 C 820.152344 1050.855469 805.449219 1050.273438 789.460938 1050.296875 C 769.742188 1050.328125 759.492188 1050.875 749.628906 1052.417969 C 742.328125 1053.558594 729.597656 1056.222656 721.34375 1058.332031 C 713.089844 1060.441406 700.621094 1064.316406 693.636719 1066.945312 C 686.648438 1069.570312 674.699219 1074.863281 667.082031 1078.703125 C 659.460938 1082.546875 648.292969 1088.886719 642.261719 1092.796875 C 636.230469 1096.703125 626.097656 1104.039062 619.746094 1109.09375 C 613.394531 1114.148438 602.742188 1123.800781 596.074219 1130.539062 C 589.40625 1137.277344 579.277344 1148.820312 573.5625 1156.195312 C 567.847656 1163.566406 559.835938 1174.957031 555.761719 1181.507812 C 551.6875 1188.0625 545.625 1198.875 542.285156 1205.542969 C 538.949219 1212.210938 534.683594 1221.5625 532.8125 1226.324219 C 530.9375 1231.089844 526.785156 1242.777344 523.582031 1252.304688 C 520.378906 1261.828125 516.425781 1275.597656 514.796875 1282.898438 C 513.167969 1290.203125 510.953125 1301.890625 509.878906 1308.875 C 508.464844 1318.039062 507.902344 1329.296875 507.851562 1349.285156 C 507.808594 1366.382812 508.367188 1381.195312 509.308594 1387.964844 C 510.152344 1393.996094 512.078125 1404.90625 513.597656 1412.210938 C 515.113281 1419.511719 517.921875 1430.941406 519.835938 1437.609375 C 521.75 1444.277344 526.210938 1457.523438 529.746094 1467.050781 C 533.285156 1476.574219 540.511719 1493.199219 545.808594 1503.996094 C 551.582031 1515.765625 560.222656 1530.792969 567.386719 1541.535156 C 573.957031 1551.386719 583.539062 1564.632812 588.679688 1570.976562 C 593.820312 1577.316406 603.429688 1588.164062 610.039062 1595.082031 C 616.644531 1602 627.507812 1612.363281 634.175781 1618.109375 C 640.84375 1623.855469 651.234375 1632.210938 657.265625 1636.675781 C 663.300781 1641.140625 674.210938 1648.503906 681.511719 1653.039062 C 688.816406 1657.574219 701.285156 1664.539062 709.222656 1668.511719 C 717.160156 1672.488281 729.109375 1677.957031 735.777344 1680.667969 C 742.445312 1683.378906 753.613281 1687.429688 760.597656 1689.671875 C 767.585938 1691.910156 779.535156 1695.300781 787.152344 1697.207031 C 794.773438 1699.109375 805.425781 1701.472656 810.820312 1702.453125 C 816.21875 1703.4375 826.871094 1705.066406 834.492188 1706.078125 C 842.109375 1707.085938 858.214844 1708.214844 870.28125 1708.585938 C 883.519531 1708.992188 899.085938 1708.707031 909.535156 1707.863281 C 919.0625 1707.101562 934.128906 1705.246094 943.019531 1703.75 C 951.910156 1702.25 964.636719 1699.644531 971.304688 1697.960938 C 977.972656 1696.273438 989.144531 1693.0625 996.128906 1690.824219 C 1003.113281 1688.582031 1014.542969 1684.417969 1021.527344 1681.570312 C 1028.511719 1678.722656 1040.722656 1673.128906 1048.660156 1669.148438 C 1056.597656 1665.164062 1067.769531 1659.066406 1073.484375 1655.601562 C 1079.199219 1652.132812 1086.882812 1647.257812 1090.558594 1644.765625 C 1094.234375 1642.273438 1097.21875 1640.105469 1097.195312 1639.945312 C 1097.171875 1639.785156 1095.722656 1640.207031 1093.976562 1640.878906 C 1092.230469 1641.550781 1083.269531 1644.160156 1074.0625 1646.675781 C 1064.851562 1649.191406 1049.785156 1652.773438 1040.578125 1654.632812 C 1031.371094 1656.488281 1015.785156 1659.085938 1005.941406 1660.402344 C 996.097656 1661.714844 977.914062 1663.402344 965.53125 1664.144531 C 948.183594 1665.1875 937.589844 1665.179688 919.351562 1664.113281 C 906.332031 1663.351562 888.410156 1661.664062 879.519531 1660.367188 C 870.628906 1659.070312 857.640625 1656.722656 850.652344 1655.152344 C 843.667969 1653.582031 831.71875 1650.449219 824.097656 1648.191406 C 816.480469 1645.9375 803.75 1641.460938 795.8125 1638.246094 C 787.875 1635.035156 776.964844 1630.1875 771.566406 1627.480469 C 766.167969 1624.773438 756.039062 1619.089844 749.054688 1614.847656 C 742.070312 1610.605469 732.457031 1604.238281 727.695312 1600.691406 C 722.933594 1597.148438 713.878906 1589.785156 707.578125 1584.335938 C 701.277344 1578.882812 691.40625 1569.210938 685.640625 1562.84375 C 679.878906 1556.472656 671.453125 1546.339844 666.917969 1540.328125 C 662.382812 1534.316406 655.203125 1523.941406 650.957031 1517.273438 C 646.714844 1510.605469 639.160156 1496.839844 634.167969 1486.679688 C 629.179688 1476.519531 623.21875 1462.75 620.921875 1456.082031 C 618.625 1449.414062 615.484375 1437.726562 613.945312 1430.105469 C 612.40625 1422.484375 610.539062 1408.714844 609.796875 1399.507812 C 608.761719 1386.636719 608.769531 1378.632812 609.832031 1364.871094 C 610.589844 1355.03125 612.527344 1340.222656 614.136719 1331.96875 C 615.746094 1323.710938 619.015625 1310.984375 621.40625 1303.679688 C 623.800781 1296.378906 628.140625 1285.46875 631.054688 1279.433594 C 633.96875 1273.402344 638.589844 1265.09375 641.324219 1260.972656 C 644.058594 1256.847656 649.300781 1250.355469 652.972656 1246.539062 C 656.640625 1242.722656 659.855469 1239.863281 660.113281 1240.179688 C 660.371094 1240.496094 659.019531 1245.175781 657.109375 1250.570312 C 655.199219 1255.96875 652.589844 1264.800781 651.308594 1270.199219 C 650.027344 1275.597656 648.253906 1285.46875 647.371094 1292.136719 C 646.488281 1298.804688 645.761719 1310.753906 645.753906 1318.691406 C 645.746094 1326.628906 646.261719 1337.796875 646.902344 1343.511719 C 647.539062 1349.226562 649.15625 1359.359375 650.492188 1366.027344 C 651.832031 1372.695312 654.167969 1382.304688 655.683594 1387.386719 C 657.199219 1392.464844 660.324219 1401.558594 662.628906 1407.589844 C 664.933594 1413.625 670.605469 1426.09375 675.234375 1435.300781 C 679.863281 1444.507812 687.652344 1457.757812 692.542969 1464.742188 C 697.429688 1471.726562 705.183594 1481.859375 709.765625 1487.253906 C 714.351562 1492.652344 722.988281 1501.679688 728.960938 1507.3125 C 734.929688 1512.945312 745.53125 1521.820312 752.515625 1527.03125 C 759.503906 1532.242188 769.113281 1538.90625 773.875 1541.839844 C 778.640625 1544.769531 789.550781 1550.515625 798.121094 1554.601562 C 806.695312 1558.691406 818.902344 1563.859375 825.253906 1566.089844 C 831.605469 1568.320312 843.292969 1571.730469 851.230469 1573.671875 C 859.167969 1575.613281 871.636719 1578.128906 878.941406 1579.261719 C 888.847656 1580.800781 898.957031 1581.324219 918.773438 1581.316406 C 937.25 1581.308594 950.421875 1580.679688 962.070312 1579.238281 C 971.277344 1578.101562 985.042969 1575.871094 992.664062 1574.28125 C 1000.285156 1572.695312 1011.972656 1569.835938 1018.640625 1567.925781 C 1025.308594 1566.015625 1036.738281 1562.121094 1044.042969 1559.269531 C 1051.34375 1556.417969 1064.332031 1550.445312 1072.90625 1546 C 1081.480469 1541.554688 1094.207031 1534.09375 1101.191406 1529.417969 C 1108.175781 1524.742188 1118.300781 1517.371094 1123.691406 1513.035156 C 1129.078125 1508.699219 1138.894531 1499.957031 1145.507812 1493.605469 C 1152.117188 1487.253906 1164.265625 1474.007812 1172.507812 1464.164062 C 1180.75 1454.320312 1192.492188 1438.734375 1198.609375 1429.527344 C 1204.722656 1420.320312 1213.4375 1405.511719 1217.976562 1396.621094 C 1222.515625 1387.734375 1228.3125 1375.523438 1230.863281 1369.492188 C 1233.410156 1363.457031 1237.5625 1352.546875 1240.085938 1345.246094 C 1242.609375 1337.941406 1246.550781 1324.433594 1248.847656 1315.226562 C 1251.140625 1306.019531 1254.019531 1292.511719 1255.242188 1285.207031 C 1256.46875 1277.90625 1258.101562 1264.398438 1258.878906 1255.191406 C 1259.757812 1244.695312 1260.027344 1229.617188 1259.597656 1214.78125 C 1259.171875 1200.109375 1257.988281 1184.96875 1256.484375 1174.949219 C 1255.148438 1166.058594 1252.257812 1151.25 1250.058594 1142.042969 C 1247.859375 1132.835938 1243.925781 1118.808594 1241.316406 1110.871094 C 1238.707031 1102.933594 1234.605469 1091.503906 1232.203125 1085.46875 C 1229.800781 1079.4375 1225.539062 1069.566406 1222.726562 1063.535156 C 1219.917969 1057.5 1214.085938 1046.332031 1209.761719 1038.710938 C 1205.441406 1031.089844 1198.371094 1019.660156 1194.042969 1013.308594 C 1189.71875 1006.960938 1181.734375 996.179688 1176.304688 989.355469 C 1170.871094 982.527344 1160.320312 970.640625 1152.859375 962.9375 C 1145.398438 955.234375 1133.316406 943.921875 1126.015625 937.796875 C 1118.714844 931.667969 1107.542969 922.972656 1101.191406 918.46875 C 1094.84375 913.964844 1084.453125 907.160156 1078.101562 903.351562 C 1071.75 899.542969 1060.582031 893.421875 1053.277344 889.746094 Z M 1053.277344 889.746094 " fill-opacity="1" fill-rule="nonzero"/><g fill="#000000" fill-opacity="1"><g transform="translate(1414.457607, 1459.687369)"><g><path d="M 32.015625 0 L 32.015625 -352.640625 L 277.609375 -352.640625 L 277.609375 -280.609375 L 122.546875 -280.609375 L 122.546875 -215.59375 L 267.609375 -215.59375 L 267.609375 -143.5625 L 122.546875 -143.5625 L 122.546875 0 Z M 32.015625 0 "/></g></g></g><g fill="#000000" fill-opacity="1"><g transform="translate(1703.572469, 1459.687369)"><g><path d="M 215.59375 -179.578125 L 167.0625 -174.578125 C 147.726562 -172.566406 134.222656 -167.394531 126.546875 -159.0625 C 118.878906 -150.726562 115.046875 -138.890625 115.046875 -123.546875 L 115.046875 0 L 26.015625 0 L 26.015625 -246.09375 L 110.546875 -246.09375 L 110.546875 -203.578125 C 116.210938 -218.585938 125.546875 -230.007812 138.546875 -237.84375 C 151.554688 -245.675781 167.398438 -250.097656 186.078125 -251.109375 L 210.578125 -253.109375 Z M 215.59375 -179.578125 "/></g></g></g><g fill="#000000" fill-opacity="1"><g transform="translate(1913.155625, 1459.687369)"><g><path d="M 138.5625 -252.109375 C 177.238281 -252.109375 205.832031 -243.1875 224.34375 -225.34375 C 242.851562 -207.5 252.109375 -179.738281 252.109375 -142.0625 L 252.109375 0 L 168.5625 0 L 168.5625 -34.515625 C 163.894531 -22.503906 156.054688 -13.082031 145.046875 -6.25 C 134.046875 0.582031 120.878906 4 105.546875 4 C 88.535156 4 73.191406 0.582031 59.515625 -6.25 C 45.847656 -13.082031 35.09375 -22.582031 27.25 -34.75 C 19.414062 -46.925781 15.5 -60.6875 15.5 -76.03125 C 15.5 -93.707031 20.082031 -107.796875 29.25 -118.296875 C 38.425781 -128.796875 53.019531 -136.378906 73.03125 -141.046875 C 93.039062 -145.722656 120.050781 -148.0625 154.0625 -148.0625 L 167.5625 -148.0625 L 167.5625 -154.0625 C 167.5625 -166.394531 164.726562 -174.976562 159.0625 -179.8125 C 153.394531 -184.65625 143.390625 -187.078125 129.046875 -187.078125 C 117.710938 -187.078125 104.625 -184.828125 89.78125 -180.328125 C 74.945312 -175.828125 61.023438 -170.070312 48.015625 -163.0625 L 25.515625 -221.59375 C 39.847656 -230.257812 57.769531 -237.507812 79.28125 -243.34375 C 100.789062 -249.1875 120.550781 -252.109375 138.5625 -252.109375 Z M 126.546875 -55.515625 C 138.554688 -55.515625 148.394531 -59.765625 156.0625 -68.265625 C 163.726562 -76.773438 167.5625 -87.703125 167.5625 -101.046875 L 167.5625 -107.046875 L 159.5625 -107.046875 C 138.21875 -107.046875 123.046875 -105.125 114.046875 -101.28125 C 105.046875 -97.445312 100.546875 -91.03125 100.546875 -82.03125 C 100.546875 -74.363281 102.960938 -68.023438 107.796875 -63.015625 C 112.628906 -58.015625 118.878906 -55.515625 126.546875 -55.515625 Z M 126.546875 -55.515625 "/></g></g></g><g fill="#000000" fill-opacity="1"><g transform="translate(2189.265338, 1459.687369)"><g><path d="M 191.578125 -252.109375 C 220.921875 -252.109375 242.757812 -243.351562 257.09375 -225.84375 C 271.4375 -208.332031 278.609375 -181.738281 278.609375 -146.0625 L 278.609375 0 L 189.578125 0 L 189.578125 -142.0625 C 189.578125 -156.726562 186.992188 -167.394531 181.828125 -174.0625 C 176.660156 -180.738281 168.90625 -184.078125 158.5625 -184.078125 C 145.226562 -184.078125 134.640625 -179.820312 126.796875 -171.3125 C 118.960938 -162.8125 115.046875 -151.394531 115.046875 -137.0625 L 115.046875 0 L 26.015625 0 L 26.015625 -246.09375 L 112.546875 -246.09375 L 112.546875 -213.09375 C 121.210938 -225.757812 132.378906 -235.425781 146.046875 -242.09375 C 159.722656 -248.769531 174.898438 -252.109375 191.578125 -252.109375 Z M 191.578125 -252.109375 "/></g></g></g><g fill="#000000" fill-opacity="1"><g transform="translate(2491.885541, 1459.687369)"><g><path d="M 148.5625 4 C 106.539062 4 73.691406 -7.335938 50.015625 -30.015625 C 26.335938 -52.691406 14.5 -83.535156 14.5 -122.546875 C 14.5 -148.222656 20.25 -170.898438 31.75 -190.578125 C 43.257812 -210.253906 59.4375 -225.425781 80.28125 -236.09375 C 101.125 -246.769531 125.21875 -252.109375 152.5625 -252.109375 C 170.90625 -252.109375 188.660156 -249.4375 205.828125 -244.09375 C 223.003906 -238.757812 236.925781 -231.59375 247.59375 -222.59375 L 225.09375 -162.5625 C 216.757812 -169.226562 206.671875 -174.644531 194.828125 -178.8125 C 182.992188 -182.988281 171.90625 -185.078125 161.5625 -185.078125 C 143.550781 -185.078125 129.796875 -180.070312 120.296875 -170.0625 C 110.796875 -160.0625 106.046875 -144.890625 106.046875 -124.546875 C 106.046875 -104.203125 110.796875 -88.863281 120.296875 -78.53125 C 129.796875 -68.195312 143.550781 -63.03125 161.5625 -63.03125 C 171.90625 -63.03125 182.992188 -65.113281 194.828125 -69.28125 C 206.671875 -73.445312 216.757812 -79.03125 225.09375 -86.03125 L 247.59375 -25.515625 C 236.257812 -16.171875 221.835938 -8.914062 204.328125 -3.75 C 186.828125 1.414062 168.238281 4 148.5625 4 Z M 148.5625 4 "/></g></g></g><g fill="#000000" fill-opacity="1"><g transform="translate(2741.984812, 1459.687369)"><g><path d="M 26.015625 0 L 26.015625 -246.09375 L 115.046875 -246.09375 L 115.046875 0 Z M 24.015625 -369.15625 L 117.046875 -369.15625 L 117.046875 -288.625 L 24.015625 -288.625 Z M 24.015625 -369.15625 "/></g></g></g><g fill="#000000" fill-opacity="1"><g transform="translate(2882.540564, 1459.687369)"><g><path d="M 125.046875 4 C 101.367188 4 79.523438 1.5 59.515625 -3.5 C 39.515625 -8.5 22.675781 -15.835938 9 -25.515625 L 31.515625 -86.03125 C 44.847656 -77.363281 60.019531 -70.441406 77.03125 -65.265625 C 94.039062 -60.097656 110.378906 -57.515625 126.046875 -57.515625 C 135.722656 -57.515625 143.226562 -58.929688 148.5625 -61.765625 C 153.894531 -64.609375 156.5625 -68.53125 156.5625 -73.53125 C 156.5625 -77.863281 154.644531 -81.195312 150.8125 -83.53125 C 146.976562 -85.863281 139.222656 -88.363281 127.546875 -91.03125 L 88.03125 -100.046875 C 63.019531 -105.710938 45.007812 -114.046875 34 -125.046875 C 23 -136.054688 17.5 -151.726562 17.5 -172.0625 C 17.5 -187.738281 22.164062 -201.660156 31.5 -213.828125 C 40.84375 -226.003906 53.929688 -235.425781 70.765625 -242.09375 C 87.609375 -248.769531 106.703125 -252.109375 128.046875 -252.109375 C 145.722656 -252.109375 163.3125 -249.519531 180.8125 -244.34375 C 198.320312 -239.175781 214.25 -231.925781 228.59375 -222.59375 L 205.578125 -164.5625 C 192.242188 -172.90625 178.820312 -179.328125 165.3125 -183.828125 C 151.8125 -188.328125 139.054688 -190.578125 127.046875 -190.578125 C 117.378906 -190.578125 109.878906 -189.078125 104.546875 -186.078125 C 99.210938 -183.078125 96.546875 -178.738281 96.546875 -173.0625 C 96.546875 -169.726562 98.210938 -166.976562 101.546875 -164.8125 C 104.878906 -162.644531 110.710938 -160.5625 119.046875 -158.5625 L 160.5625 -149.0625 C 186.570312 -143.394531 205.410156 -134.640625 217.078125 -122.796875 C 228.753906 -110.960938 234.59375 -94.875 234.59375 -74.53125 C 234.59375 -50.1875 224.835938 -31.007812 205.328125 -17 C 185.828125 -3 159.066406 4 125.046875 4 Z M 125.046875 4 "/></g></g></g><g fill="#000000" fill-opacity="1"><g transform="translate(3127.637765, 1459.687369)"><g><path d="M 148.5625 4 C 106.539062 4 73.691406 -7.335938 50.015625 -30.015625 C 26.335938 -52.691406 14.5 -83.535156 14.5 -122.546875 C 14.5 -148.222656 20.25 -170.898438 31.75 -190.578125 C 43.257812 -210.253906 59.4375 -225.425781 80.28125 -236.09375 C 101.125 -246.769531 125.21875 -252.109375 152.5625 -252.109375 C 170.90625 -252.109375 188.660156 -249.4375 205.828125 -244.09375 C 223.003906 -238.757812 236.925781 -231.59375 247.59375 -222.59375 L 225.09375 -162.5625 C 216.757812 -169.226562 206.671875 -174.644531 194.828125 -178.8125 C 182.992188 -182.988281 171.90625 -185.078125 161.5625 -185.078125 C 143.550781 -185.078125 129.796875 -180.070312 120.296875 -170.0625 C 110.796875 -160.0625 106.046875 -144.890625 106.046875 -124.546875 C 106.046875 -104.203125 110.796875 -88.863281 120.296875 -78.53125 C 129.796875 -68.195312 143.550781 -63.03125 161.5625 -63.03125 C 171.90625 -63.03125 182.992188 -65.113281 194.828125 -69.28125 C 206.671875 -73.445312 216.757812 -79.03125 225.09375 -86.03125 L 247.59375 -25.515625 C 236.257812 -16.171875 221.835938 -8.914062 204.328125 -3.75 C 186.828125 1.414062 168.238281 4 148.5625 4 Z M 148.5625 4 "/></g></g></g><g fill="#000000" fill-opacity="1"><g transform="translate(3377.736946, 1459.687369)"><g><path d="M 150.0625 4 C 123.050781 4 99.289062 -1.25 78.78125 -11.75 C 58.269531 -22.257812 42.425781 -37.179688 31.25 -56.515625 C 20.082031 -75.859375 14.5 -98.535156 14.5 -124.546875 C 14.5 -150.554688 20.082031 -173.148438 31.25 -192.328125 C 42.425781 -211.503906 58.1875 -226.257812 78.53125 -236.59375 C 98.875 -246.9375 122.71875 -252.109375 150.0625 -252.109375 C 177.40625 -252.109375 201.25 -246.9375 221.59375 -236.59375 C 241.9375 -226.257812 257.691406 -211.503906 268.859375 -192.328125 C 280.023438 -173.148438 285.609375 -150.554688 285.609375 -124.546875 C 285.609375 -98.535156 280.023438 -75.859375 268.859375 -56.515625 C 257.691406 -37.179688 241.9375 -22.257812 221.59375 -11.75 C 201.25 -1.25 177.40625 4 150.0625 4 Z M 150.0625 -62.53125 C 181.738281 -62.53125 197.578125 -83.203125 197.578125 -124.546875 C 197.578125 -165.898438 181.738281 -186.578125 150.0625 -186.578125 C 118.382812 -186.578125 102.546875 -165.898438 102.546875 -124.546875 C 102.546875 -83.203125 118.382812 -62.53125 150.0625 -62.53125 Z M 150.0625 -62.53125 "/></g></g></g><g fill="#000000" fill-opacity="1"><g transform="translate(3677.856069, 1459.687369)"><g><path d="M 159.5625 4.5 C 133.21875 4.5 107.207031 1 81.53125 -6 C 55.851562 -13 35.007812 -22.335938 19 -34.015625 L 47.515625 -99.046875 C 64.523438 -88.367188 82.695312 -80.195312 102.03125 -74.53125 C 121.375 -68.863281 140.882812 -66.03125 160.5625 -66.03125 C 180.570312 -66.03125 195.828125 -68.78125 206.328125 -74.28125 C 216.835938 -79.78125 222.09375 -87.535156 222.09375 -97.546875 C 222.09375 -106.546875 217.335938 -113.878906 207.828125 -119.546875 C 198.328125 -125.210938 180.238281 -130.882812 153.5625 -136.5625 C 120.550781 -143.5625 94.707031 -151.894531 76.03125 -161.5625 C 57.351562 -171.238281 44.265625 -182.578125 36.765625 -195.578125 C 29.265625 -208.585938 25.515625 -224.59375 25.515625 -243.59375 C 25.515625 -265.269531 31.597656 -284.695312 43.765625 -301.875 C 55.941406 -319.050781 73.113281 -332.554688 95.28125 -342.390625 C 117.457031 -352.222656 142.882812 -357.140625 171.5625 -357.140625 C 196.90625 -357.140625 221.5 -353.554688 245.34375 -346.390625 C 269.1875 -339.222656 287.78125 -329.96875 301.125 -318.625 L 273.109375 -253.609375 C 241.097656 -275.609375 207.414062 -286.609375 172.0625 -286.609375 C 155.0625 -286.609375 141.390625 -283.359375 131.046875 -276.859375 C 120.710938 -270.359375 115.546875 -261.773438 115.546875 -251.109375 C 115.546875 -244.765625 117.378906 -239.59375 121.046875 -235.59375 C 124.710938 -231.59375 131.546875 -227.675781 141.546875 -223.84375 C 151.554688 -220.007812 166.398438 -216.09375 186.078125 -212.09375 C 218.085938 -205.082031 243.265625 -196.65625 261.609375 -186.8125 C 279.953125 -176.976562 292.957031 -165.554688 300.625 -152.546875 C 308.289062 -139.546875 312.125 -124.046875 312.125 -106.046875 C 312.125 -71.359375 298.785156 -44.257812 272.109375 -24.75 C 245.429688 -5.25 207.914062 4.5 159.5625 4.5 Z M 159.5625 4.5 "/></g></g></g><g fill="#000000" fill-opacity="1"><g transform="translate(4009.987991, 1459.687369)"><g><path d="M 150.0625 4 C 123.050781 4 99.289062 -1.25 78.78125 -11.75 C 58.269531 -22.257812 42.425781 -37.179688 31.25 -56.515625 C 20.082031 -75.859375 14.5 -98.535156 14.5 -124.546875 C 14.5 -150.554688 20.082031 -173.148438 31.25 -192.328125 C 42.425781 -211.503906 58.1875 -226.257812 78.53125 -236.59375 C 98.875 -246.9375 122.71875 -252.109375 150.0625 -252.109375 C 177.40625 -252.109375 201.25 -246.9375 221.59375 -236.59375 C 241.9375 -226.257812 257.691406 -211.503906 268.859375 -192.328125 C 280.023438 -173.148438 285.609375 -150.554688 285.609375 -124.546875 C 285.609375 -98.535156 280.023438 -75.859375 268.859375 -56.515625 C 257.691406 -37.179688 241.9375 -22.257812 221.59375 -11.75 C 201.25 -1.25 177.40625 4 150.0625 4 Z M 150.0625 -62.53125 C 181.738281 -62.53125 197.578125 -83.203125 197.578125 -124.546875 C 197.578125 -165.898438 181.738281 -186.578125 150.0625 -186.578125 C 118.382812 -186.578125 102.546875 -165.898438 102.546875 -124.546875 C 102.546875 -83.203125 118.382812 -62.53125 150.0625 -62.53125 Z M 150.0625 -62.53125 "/></g></g></g><g fill="#000000" fill-opacity="1"><g transform="translate(4310.107114, 1459.687369)"><g><path d="M 26.015625 0 L 26.015625 -352.640625 L 115.046875 -352.640625 L 115.046875 0 Z M 26.015625 0 "/></g></g></g><g fill="#000000" fill-opacity="1"><g transform="translate(4450.662867, 1459.687369)"><g><path d="M 26.015625 0 L 26.015625 -246.09375 L 115.046875 -246.09375 L 115.046875 0 Z M 24.015625 -369.15625 L 117.046875 -369.15625 L 117.046875 -288.625 L 24.015625 -288.625 Z M 24.015625 -369.15625 "/></g></g></g><g fill="#000000" fill-opacity="1"><g transform="translate(4591.218799, 1459.687369)"><g><path d="M 125.046875 4 C 101.367188 4 79.523438 1.5 59.515625 -3.5 C 39.515625 -8.5 22.675781 -15.835938 9 -25.515625 L 31.515625 -86.03125 C 44.847656 -77.363281 60.019531 -70.441406 77.03125 -65.265625 C 94.039062 -60.097656 110.378906 -57.515625 126.046875 -57.515625 C 135.722656 -57.515625 143.226562 -58.929688 148.5625 -61.765625 C 153.894531 -64.609375 156.5625 -68.53125 156.5625 -73.53125 C 156.5625 -77.863281 154.644531 -81.195312 150.8125 -83.53125 C 146.976562 -85.863281 139.222656 -88.363281 127.546875 -91.03125 L 88.03125 -100.046875 C 63.019531 -105.710938 45.007812 -114.046875 34 -125.046875 C 23 -136.054688 17.5 -151.726562 17.5 -172.0625 C 17.5 -187.738281 22.164062 -201.660156 31.5 -213.828125 C 40.84375 -226.003906 53.929688 -235.425781 70.765625 -242.09375 C 87.609375 -248.769531 106.703125 -252.109375 128.046875 -252.109375 C 145.722656 -252.109375 163.3125 -249.519531 180.8125 -244.34375 C 198.320312 -239.175781 214.25 -231.925781 228.59375 -222.59375 L 205.578125 -164.5625 C 192.242188 -172.90625 178.820312 -179.328125 165.3125 -183.828125 C 151.8125 -188.328125 139.054688 -190.578125 127.046875 -190.578125 C 117.378906 -190.578125 109.878906 -189.078125 104.546875 -186.078125 C 99.210938 -183.078125 96.546875 -178.738281 96.546875 -173.0625 C 96.546875 -169.726562 98.210938 -166.976562 101.546875 -164.8125 C 104.878906 -162.644531 110.710938 -160.5625 119.046875 -158.5625 L 160.5625 -149.0625 C 186.570312 -143.394531 205.410156 -134.640625 217.078125 -122.796875 C 228.753906 -110.960938 234.59375 -94.875 234.59375 -74.53125 C 234.59375 -50.1875 224.835938 -31.007812 205.328125 -17 C 185.828125 -3 159.066406 4 125.046875 4 Z M 125.046875 4 "/></g></g></g></svg>